HIERARCHY
ROOT root
{
	OFFSET 0.000000 0.000000 0.000000
	CHANNELS 6 Xposition Yposition Zposition Zrotation Yrotation Xrotation
	JOINT lhip
	{
		OFFSET 0.058581 -0.082280 -0.017664
		CHANNELS 3 Zrotation Yrotation Xrotation
		JOINT lknee
		{
			OFFSET 0.043451 -0.386469 0.008037
			CHANNELS 3 Zrotation Yrotation Xrotation
			JOINT lankle
			{
				OFFSET -0.014790 -0.426874 -0.037428
				CHANNELS 3 Zrotation Yrotation Xrotation
				JOINT ltoe
				{
					OFFSET 0.041054 -0.060286 0.122042
					CHANNELS 3 Zrotation Yrotation Xrotation
					End Site
					{
						OFFSET 0.000000 0.000000 0.000000
					}
				}
			}
		}
	}
	JOINT rhip
	{
		OFFSET -0.060310 -0.090513 -0.013543
		CHANNELS 3 Zrotation Yrotation Xrotation
		JOINT rknee
		{
			OFFSET -0.043257 -0.383688 -0.004843
			CHANNELS 3 Zrotation Yrotation Xrotation
			JOINT rankle
			{
				OFFSET 0.019056 -0.420046 -0.034562
				CHANNELS 3 Zrotation Yrotation Xrotation
				JOINT rtoe
				{
					OFFSET -0.034840 -0.062106 0.130323
					CHANNELS 3 Zrotation Yrotation Xrotation
					End Site
					{
						OFFSET 0.000000 0.000000 0.000000
					}
				}
			}
		}
	}
	JOINT lowerback
	{
		OFFSET 0.004439 0.124404 -0.038385
		CHANNELS 3 Zrotation Yrotation Xrotation
		JOINT upperback
		{
			OFFSET 0.004488 0.137956 0.026820
			CHANNELS 3 Zrotation Yrotation Xrotation
			JOINT chest
			{
				OFFSET -0.002265 0.056032 0.002855
				CHANNELS 3 Zrotation Yrotation Xrotation
				JOINT lowerneck
				{
					OFFSET -0.013390 0.211636 -0.033468
					CHANNELS 3 Zrotation Yrotation Xrotation
					JOINT upperneck
					{
						OFFSET 0.010113 0.088937 0.050410
						CHANNELS 3 Zrotation Yrotation Xrotation
						End Site
						{
							OFFSET 0.000000 0.000000 0.000000
						}
					}
				}
				JOINT lclavicle
				{
					OFFSET 0.071702 0.114000 -0.018898
					CHANNELS 3 Zrotation Yrotation Xrotation
					JOINT lshoulder
					{
						OFFSET 0.122921 0.045205 -0.019046
						CHANNELS 3 Zrotation Yrotation Xrotation
						JOINT lelbow
						{
							OFFSET 0.255332 -0.015649 -0.022946
							CHANNELS 3 Zrotation Yrotation Xrotation
							JOINT lwrist
							{
								OFFSET 0.265709 0.012698 -0.007375
								CHANNELS 3 Zrotation Yrotation Xrotation
								End Site
								{
									OFFSET 0.000000 0.000000 0.000000
								}
							}
						}
					}
				}
				JOINT rclavicle
				{
					OFFSET -0.082954 0.112472 -0.023707
					CHANNELS 3 Zrotation Yrotation Xrotation
					JOINT rshoulder
					{
						OFFSET -0.113228 0.046853 -0.008472
						CHANNELS 3 Zrotation Yrotation Xrotation
						JOINT relbow
						{
							OFFSET -0.260127 -0.014369 -0.031269
							CHANNELS 3 Zrotation Yrotation Xrotation
							JOINT rwrist
							{
								OFFSET -0.269108 0.006794 -0.006027
								CHANNELS 3 Zrotation Yrotation Xrotation
								End Site
								{
									OFFSET 0.000000 0.000000 0.000000
								}
							}
						}
					}
				}
			}
		}
	}
}
MOTION
Frames: 7
Frame Time: 0.033333
1.801893 0.750889 0.976208 -86.615086 3.331118 93.137312 2.943884 -5.230783 -16.317230 -6.497430 -13.952115 26.910787 2.312620 13.664897 -25.925528 0.000000 -0.000000 0.000000 3.734796 2.642893 -17.407744 2.241491 1.595766 29.701198 4.591679 -11.627737 -20.973021 0.000000 -0.000000 0.000000 0.020642 -0.623580 22.325522 2.075242 -2.189165 0.182422 1.167958 -2.166711 7.044854 2.004819 2.264008 -14.598489 6.383857 -3.175689 -18.306364 -19.414153 10.868362 3.264040 -45.208227 6.120526 7.912888 -8.060620 -34.760588 20.302885 -1.448150 -4.876514 -11.711832 19.984686 -8.955640 -1.915872 51.501828 -10.726912 8.387617 -4.924325 21.669333 3.381119 2.385575 1.140499 -2.545851 
1.806364 0.752804 0.959079 -86.731194 3.209548 94.833919 3.785413 -5.980266 -22.224852 -8.308590 -11.689071 33.611508 3.017824 14.077812 -27.967089 0.000000 -0.000000 0.000000 2.810462 3.530260 -23.015069 3.128115 0.247579 36.148605 4.372358 -11.924539 -23.292819 0.000000 -0.000000 0.000000 -0.048914 -0.667494 24.247842 2.370498 -1.797874 -0.515960 1.088433 -2.206326 7.095898 1.871839 1.825817 -15.334613 6.531817 -3.551786 -20.337697 -18.926419 11.670870 3.797371 -44.977390 7.400043 8.097398 -9.580681 -36.382838 22.127973 -1.950589 -4.662778 -12.628549 19.686902 -9.714416 -1.579213 51.259159 -11.507970 7.949306 -4.850474 21.906045 3.448573 2.307234 1.122950 -2.483564 
1.811357 0.754992 0.936768 -87.220203 3.105497 96.816412 4.889352 -6.075275 -28.931379 -10.212487 -9.183586 41.067457 3.543138 14.108512 -30.506455 0.000000 -0.000000 0.000000 1.492784 4.394039 -29.527528 4.116137 -1.341780 43.542951 4.484982 -11.732465 -25.716855 0.000000 -0.000000 0.000000 -0.320084 -0.566069 25.598657 2.705823 -1.421668 -0.953753 1.031408 -2.163162 7.259185 1.846429 1.806265 -16.589815 6.379559 -4.028498 -22.041597 -19.139850 12.206434 4.160660 -44.764965 8.378210 8.269726 -10.198613 -37.530265 22.641274 -1.839726 -4.366104 -13.194438 19.833019 -9.844741 -1.181928 50.814696 -11.566924 7.746827 -4.781888 21.432646 3.309888 2.212347 1.194927 -2.047762 
1.813185 0.757166 0.911181 -87.508835 2.896916 98.041531 6.009900 -6.053406 -34.971096 -11.789933 -6.099407 48.756319 4.422526 14.196939 -32.339346 0.000000 -0.000000 0.000000 0.307293 4.747572 -34.894348 4.613978 -2.867014 50.815077 4.215044 -11.551269 -28.331087 0.000000 -0.000000 0.000000 -0.696684 -0.447427 27.456933 2.993174 -1.294187 -1.413302 0.989577 -2.250231 7.092151 2.168069 1.327076 -17.303243 6.535785 -4.461678 -23.163167 -20.057579 12.395470 4.367216 -44.627344 9.216788 8.155417 -9.462850 -38.232301 21.761855 -1.613956 -3.886295 -13.532065 20.543238 -9.332018 -0.774841 50.298965 -11.305144 7.430137 -5.082993 20.424264 2.916404 2.365007 0.902312 -1.528361 
1.812372 0.758700 0.883929 -87.621378 2.694699 98.928710 6.862372 -6.074649 -40.291410 -12.880368 -3.343795 56.235274 5.181569 14.382357 -34.478609 0.000000 -0.000000 0.000000 -0.749779 4.700300 -39.652081 5.170999 -4.089228 58.048624 4.622881 -11.054889 -31.069338 0.000000 -0.000000 0.000000 -0.889628 -0.330128 29.833905 3.126107 -0.966026 -3.030245 0.914396 -2.497293 7.151647 2.245076 1.280720 -18.394181 6.844588 -4.760696 -23.470458 -21.377876 12.061924 4.328054 -44.748463 9.107786 7.807596 -7.581989 -37.445637 19.725097 -1.627091 -3.492439 -12.842595 22.000197 -8.639973 -0.643489 49.562947 -10.608883 7.199551 -5.454922 18.729222 2.767882 2.716754 0.684030 0.046188 
1.808216 0.760152 0.856302 -87.888898 2.875370 98.960004 7.735592 -5.578886 -44.312361 -13.611517 -0.990770 63.942642 5.287245 14.142938 -36.855870 0.000000 -0.000000 0.000000 -1.314442 4.974075 -42.826710 4.930760 -5.616657 64.700651 4.390377 -10.718968 -33.505522 0.000000 -0.000000 0.000000 -0.732604 -0.661566 32.056361 3.070966 -0.451566 -3.823268 0.596769 -2.388546 7.019003 2.538196 1.312565 -19.356910 6.802861 -4.913362 -22.982287 -23.851478 10.729624 4.041838 -44.415465 8.470700 7.242556 -4.373183 -36.478880 15.725338 -0.444432 -2.875492 -11.924208 23.815618 -6.825167 -0.311779 49.215118 -9.465477 7.018554 -6.101940 17.215936 1.370640 2.174102 0.700540 -0.358919 
1.801853 0.761096 0.831068 -88.444163 2.947002 98.449936 8.366730 -5.306700 -46.894305 -13.628185 1.262681 70.278979 5.187722 14.250143 -38.699103 0.000000 -0.000000 0.000000 -1.520211 5.690194 -45.200768 4.570285 -6.330115 71.050147 4.277467 -10.986120 -35.219691 0.000000 -0.000000 0.000000 -0.887174 -0.823748 34.059296 2.985192 -0.057690 -3.803998 0.231344 -2.320170 6.492205 2.949643 1.475220 -20.617136 6.466504 -5.216439 -22.385873 -26.548688 9.085555 3.094139 -44.303455 6.600712 6.651520 -0.456000 -34.817708 10.788234 1.321552 -2.659555 -11.182636 25.917963 -4.487796 -0.639090 49.107050 -7.030622 7.350242 -7.108133 14.992043 -0.593713 1.408853 0.945744 -0.323063 
